<?xml version="1.0" encoding="utf-8"?>
<!-- Uploaded to: SVG Repo, www.svgrepo.com, Generator: SVG Repo Mixer Tools -->
<svg width="800px" height="800px" viewBox="0 0 1024 1024" class="icon"  version="1.1" xmlns="http://www.w3.org/2000/svg"><path d="M761.965846 456.757516c0 103.643595-62.62733 192.709313-152.076676 231.35987v145.36318h-199.7425v-145.36318c-89.481315-38.650557-152.076676-127.716275-152.076675-231.35987 0-139.161188 112.786738-251.915956 251.947925-251.915956 139.129219 0 251.947925 112.754769 251.947926 251.915956z" fill="#FF4893" /><path d="M410.14667 893.262652h199.7425v86.572133h-199.7425z" fill="#5FCEFF" /><path d="M609.88917 855.858887h-199.7425a22.378321 22.378321 0 0 1-22.378321-22.378321V702.391558a274.175992 274.175992 0 0 1-152.076675-245.630845c0-151.248678 123.061584-274.294277 274.326246-274.294277s274.329443 123.048796 274.329443 274.294277a274.217552 274.217552 0 0 1-152.076675 245.630845v131.089008a22.381518 22.381518 0 0 1-22.381518 22.378321z m-177.364179-44.756642h154.985858v-122.984859a22.378321 22.378321 0 0 1 13.503718-20.543298 229.505666 229.505666 0 0 0 138.576154-210.816572c0-126.568587-102.985033-229.537635-229.572801-229.537635-126.584571 0-229.569604 102.969049-229.569604 229.537635a229.473697 229.473697 0 0 0 138.572957 210.816572 22.375124 22.375124 0 0 1 13.503718 20.543298v122.984859zM609.88917 1002.213106h-199.7425a22.378321 22.378321 0 0 1-22.378321-22.378321v-86.572133a22.378321 22.378321 0 0 1 22.378321-22.378321h199.7425a22.378321 22.378321 0 0 1 22.378321 22.378321v86.572133a22.378321 22.378321 0 0 1-22.378321 22.378321z m-177.364179-44.756642h154.985858v-41.815491h-154.985858v41.815491z" fill="#4F46A3" /><path d="M570.247573 533.579095c-29.258056 0-41.959352-26.991452-50.36401-44.852549-2.637445-5.604171-6.793419-14.443608-9.875234-18.155212-3.081814 3.711604-7.250576 12.557435-9.891217 18.171197-8.404658 17.854703-21.109151 44.836565-50.360813 44.836564-29.258056 0-41.959352-26.991452-50.36401-44.852549-2.921969-6.211583-7.714127-16.390522-10.831108-19.171827a22.378321 22.378321 0 0 1 0.965465-44.737461c29.258056 0 41.959352 26.991452 50.36401 44.852549 2.634248 5.600974 6.790222 14.427623 9.865643 18.145622 3.078618-3.717998 7.231395-12.538254 9.865642-18.139228 8.411052-17.864294 21.118741-44.858943 50.395979-44.858943 29.258056 0 41.959352 26.991452 50.36401 44.852549 2.634248 5.600974 6.787025 14.427623 9.865643 18.145622 3.078618-3.717998 7.231395-12.544647 9.865642-18.145622 8.404658-17.861097 21.105954-44.852549 50.36401-44.852549a22.378321 22.378321 0 0 1 0.968662 44.737461c-3.123374 2.778109-7.912335 12.957048-10.834304 19.171827-8.404658 17.861097-21.105954 44.852549-50.36401 44.852549zM510.01792 142.629827a22.378321 22.378321 0 0 1-22.378321-22.378321v-65.504542a22.378321 22.378321 0 1 1 44.756642 0v65.504542a22.378321 22.378321 0 0 1-22.378321 22.378321zM231.439793 274.917674a22.304792 22.304792 0 0 1-15.827867-6.560045l-46.291155-46.323125a22.378321 22.378321 0 0 1 31.655733-31.636552l46.291155 46.323124a22.378321 22.378321 0 0 1-15.827866 38.196598zM342.733577 173.070738a22.384715 22.384715 0 0 1-20.683963-13.820212l-25.03175-60.421467a22.375124 22.375124 0 0 1 12.109869-29.238874 22.375124 22.375124 0 0 1 29.238874 12.109868l25.031751 60.421467a22.375124 22.375124 0 0 1-12.109869 29.238875 22.311186 22.311186 0 0 1-8.554912 1.710343zM796.364522 268.523868a22.378321 22.378321 0 0 1-15.827867-38.193401l46.287959-46.323124a22.375124 22.375124 0 0 1 31.646142-0.012788 22.378321 22.378321 0 0 1 0.009591 31.64934l-46.287958 46.319928a22.301595 22.301595 0 0 1-15.827867 6.560045zM678.676932 173.070738a22.378321 22.378321 0 0 1-20.661584-30.958809l25.066916-60.421467a22.378321 22.378321 0 0 1 41.339153 17.148188l-25.066917 60.421467a22.384715 22.384715 0 0 1-20.677568 13.810621z" fill="#4F46A3" /><path d="M322.832856 441.450745a22.384715 22.384715 0 0 1-21.898786-27.093753 216.487877 216.487877 0 0 1 13.967269-42.681852 22.394306 22.394306 0 0 1 29.564959-11.297855 22.384715 22.384715 0 0 1 11.297855 29.564958 171.459499 171.459499 0 0 0-11.074072 33.836022 22.387912 22.387912 0 0 1-21.857225 17.67248z" fill="#FFFFFF" /><path d="M375.719222 344.603765a22.378321 22.378321 0 0 1-15.811882-38.215778c41.07381-41.003478 95.660928-63.586401 153.710293-63.586401a22.378321 22.378321 0 1 1 0 44.756642c-46.105735 0-89.462134 17.934626-122.086529 50.504674a22.314383 22.314383 0 0 1-15.811882 6.540863z" fill="#FFFFFF" /></svg>